<svg xmlns="http://www.w3.org/2000/svg" width="1082.567" height="890.49" viewBox="0 0 1082.567 890.49">
  <g id="组_2" data-name="组 2" transform="translate(-534.646 -120.51)">
    <g id="组_1" data-name="组 1">
      <g id="nn_1_" data-name="nn (1)" transform="translate(204.289 -81.375)">
        <path id="路径_1" data-name="路径 1" d="M851.084,558.813,1088.6,426.861" stroke="#505050" stroke-width="0.924"/>
        <path id="路径_2" data-name="路径 2" d="M851.084,611.593,1088.6,426.861" stroke="#505050" stroke-width="0.924"/>
        <path id="路径_3" data-name="路径 3" d="M851.084,664.373,1088.6,426.861" stroke="#505050" stroke-width="0.924"/>
        <path id="路径_4" data-name="路径 4" d="M851.084,558.813,1088.6,479.642" stroke="#505050" stroke-width="0.924"/>
        <path id="路径_5" data-name="路径 5" d="M851.084,558.813l237.512-26.39" stroke="#505050" stroke-width="0.924"/>
        <path id="路径_6" data-name="路径 6" d="M851.084,558.813,1088.6,585.2" stroke="#505050" stroke-width="0.924"/>
        <path id="路径_7" data-name="路径 7" d="M851.084,611.593,1088.6,479.642" stroke="#505050" stroke-width="0.924"/>
        <path id="路径_8" data-name="路径 8" d="M851.084,611.593,1088.6,532.422" stroke="#505050" stroke-width="0.924"/>
        <path id="路径_9" data-name="路径 9" d="M851.084,611.593,1088.6,585.2" stroke="#505050" stroke-width="0.924"/>
        <path id="路径_10" data-name="路径 10" d="M851.084,664.373,1088.6,479.642" stroke="#505050" stroke-width="0.924"/>
        <path id="路径_11" data-name="路径 11" d="M851.084,664.373,1088.6,532.422" stroke="#505050" stroke-width="0.924"/>
        <path id="路径_12" data-name="路径 12" d="M851.084,664.373,1088.6,585.2" stroke="#505050" stroke-width="0.924"/>
        <path id="路径_13" data-name="路径 13" d="M1088.6,426.861,1326.108,215.74" stroke="#505050" stroke-width="0.924"/>
        <path id="路径_14" data-name="路径 14" d="M1088.6,426.861,1326.108,268.52" stroke="#505050" stroke-width="0.924"/>
        <path id="路径_15" data-name="路径 15" d="M1088.6,426.861,1326.108,321.3" stroke="#505050" stroke-width="0.924"/>
        <path id="路径_16" data-name="路径 16" d="M1088.6,479.642l237.512-263.9" stroke="#505050" stroke-width="0.924"/>
        <path id="路径_17" data-name="路径 17" d="M1088.6,479.642,1326.108,268.52" stroke="#505050" stroke-width="0.924"/>
        <path id="路径_18" data-name="路径 18" d="M1088.6,479.642,1326.108,321.3" stroke="#505050" stroke-width="0.924"/>
        <path id="路径_19" data-name="路径 19" d="M1088.6,532.422,1326.108,215.74" stroke="#505050" stroke-width="0.924"/>
        <path id="路径_20" data-name="路径 20" d="M1088.6,532.422l237.512-263.9" stroke="#505050" stroke-width="0.924"/>
        <path id="路径_21" data-name="路径 21" d="M1088.6,532.422,1326.108,321.3" stroke="#505050" stroke-width="0.924"/>
        <path id="路径_22" data-name="路径 22" d="M1088.6,585.2,1326.108,215.74" stroke="#505050" stroke-width="0.924"/>
        <path id="路径_23" data-name="路径 23" d="M1088.6,585.2,1326.108,268.52" stroke="#505050" stroke-width="0.924"/>
        <path id="路径_24" data-name="路径 24" d="M1088.6,585.2l237.512-263.9" stroke="#505050" stroke-width="0.924"/>
        <path id="路径_25" data-name="路径 25" d="M851.084,558.813,1088.6,637.983" stroke="#505050" stroke-width="0.924"/>
        <path id="路径_26" data-name="路径 26" d="M851.084,558.813,1088.6,690.763" stroke="#505050" stroke-width="0.924"/>
        <path id="路径_27" data-name="路径 27" d="M851.084,558.813,1088.6,743.544" stroke="#505050" stroke-width="0.924"/>
        <path id="路径_28" data-name="路径 28" d="M851.084,558.813,1088.6,796.324" stroke="#505050" stroke-width="0.924"/>
        <path id="路径_29" data-name="路径 29" d="M851.084,611.593l237.512,26.39" stroke="#505050" stroke-width="0.924"/>
        <path id="路径_30" data-name="路径 30" d="M851.084,611.593,1088.6,690.763" stroke="#505050" stroke-width="0.924"/>
        <path id="路径_31" data-name="路径 31" d="M851.084,611.593,1088.6,743.544" stroke="#505050" stroke-width="0.924"/>
        <path id="路径_32" data-name="路径 32" d="M851.084,611.593,1088.6,796.324" stroke="#505050" stroke-width="0.924"/>
        <path id="路径_33" data-name="路径 33" d="M851.084,664.373l237.512-26.39" stroke="#505050" stroke-width="0.924"/>
        <path id="路径_34" data-name="路径 34" d="M851.084,664.373l237.512,26.39" stroke="#505050" stroke-width="0.924"/>
        <path id="路径_35" data-name="路径 35" d="M851.084,664.373,1088.6,743.544" stroke="#505050" stroke-width="0.924"/>
        <path id="路径_36" data-name="路径 36" d="M851.084,664.373,1088.6,796.324" stroke="#505050" stroke-width="0.924"/>
        <path id="路径_37" data-name="路径 37" d="M1088.6,637.983,1326.108,215.74" stroke="#505050" stroke-width="0.924"/>
        <path id="路径_38" data-name="路径 38" d="M1088.6,637.983,1326.108,268.52" stroke="#505050" stroke-width="0.924"/>
        <path id="路径_39" data-name="路径 39" d="M1088.6,637.983,1326.108,321.3" stroke="#505050" stroke-width="0.924"/>
        <path id="路径_40" data-name="路径 40" d="M1088.6,690.763,1326.108,215.74" stroke="#505050" stroke-width="0.924"/>
        <path id="路径_41" data-name="路径 41" d="M1088.6,690.763,1326.108,268.52" stroke="#505050" stroke-width="0.924"/>
        <path id="路径_42" data-name="路径 42" d="M1088.6,690.763,1326.108,321.3" stroke="#505050" stroke-width="0.924"/>
        <path id="路径_43" data-name="路径 43" d="M1088.6,743.544l237.512-527.8" stroke="#505050" stroke-width="0.924"/>
        <path id="路径_44" data-name="路径 44" d="M1088.6,743.544,1326.108,268.52" stroke="#505050" stroke-width="0.924"/>
        <path id="路径_45" data-name="路径 45" d="M1088.6,743.544,1326.108,321.3" stroke="#505050" stroke-width="0.924"/>
        <path id="路径_46" data-name="路径 46" d="M1088.6,796.324,1326.108,215.74" stroke="#505050" stroke-width="0.924"/>
        <path id="路径_47" data-name="路径 47" d="M1088.6,796.324l237.512-527.8" stroke="#505050" stroke-width="0.924"/>
        <path id="路径_48" data-name="路径 48" d="M1088.6,796.324,1326.108,321.3" stroke="#505050" stroke-width="0.924"/>
        <path id="路径_49" data-name="路径 49" d="M1088.6,426.861l237.512-52.78" stroke="#505050" stroke-width="0.924"/>
        <path id="路径_50" data-name="路径 50" d="M1088.6,426.861h237.512" stroke="#505050" stroke-width="0.924"/>
        <path id="路径_51" data-name="路径 51" d="M1088.6,426.861l237.512,52.78" stroke="#505050" stroke-width="0.924"/>
        <path id="路径_52" data-name="路径 52" d="M1088.6,426.861l237.512,105.561" stroke="#505050" stroke-width="0.924"/>
        <path id="路径_53" data-name="路径 53" d="M1088.6,426.861,1326.108,585.2" stroke="#505050" stroke-width="0.924"/>
        <path id="路径_54" data-name="路径 54" d="M1088.6,426.861l237.512,211.122" stroke="#505050" stroke-width="0.924"/>
        <path id="路径_55" data-name="路径 55" d="M1088.6,426.861l237.512,263.9" stroke="#505050" stroke-width="0.924"/>
        <path id="路径_56" data-name="路径 56" d="M1088.6,426.861l237.512,316.682" stroke="#505050" stroke-width="0.924"/>
        <path id="路径_57" data-name="路径 57" d="M1088.6,426.861l237.512,369.463" stroke="#505050" stroke-width="0.924"/>
        <path id="路径_58" data-name="路径 58" d="M1088.6,426.861,1326.108,849.1" stroke="#505050" stroke-width="0.924"/>
        <path id="路径_59" data-name="路径 59" d="M1088.6,426.861l237.512,475.024" stroke="#505050" stroke-width="0.924"/>
        <path id="路径_60" data-name="路径 60" d="M1088.6,426.861l237.512,527.8" stroke="#505050" stroke-width="0.924"/>
        <path id="路径_61" data-name="路径 61" d="M1088.6,426.861l237.512,580.584" stroke="#505050" stroke-width="0.924"/>
        <path id="路径_62" data-name="路径 62" d="M1088.6,479.642l237.512-105.561" stroke="#505050" stroke-width="0.924"/>
        <path id="路径_63" data-name="路径 63" d="M1088.6,479.642l237.512-52.78" stroke="#505050" stroke-width="0.924"/>
        <path id="路径_64" data-name="路径 64" d="M1088.6,479.642h237.512" stroke="#505050" stroke-width="0.924"/>
        <path id="路径_65" data-name="路径 65" d="M1088.6,479.642l237.512,52.78" stroke="#505050" stroke-width="0.924"/>
        <path id="路径_66" data-name="路径 66" d="M1088.6,479.642,1326.108,585.2" stroke="#505050" stroke-width="0.924"/>
        <path id="路径_67" data-name="路径 67" d="M1088.6,479.642l237.512,158.341" stroke="#505050" stroke-width="0.924"/>
        <path id="路径_68" data-name="路径 68" d="M1088.6,479.642l237.512,211.122" stroke="#505050" stroke-width="0.924"/>
        <path id="路径_69" data-name="路径 69" d="M1088.6,479.642l237.512,263.9" stroke="#505050" stroke-width="0.924"/>
        <path id="路径_70" data-name="路径 70" d="M1088.6,479.642l237.512,316.682" stroke="#505050" stroke-width="0.924"/>
        <path id="路径_71" data-name="路径 71" d="M1088.6,479.642,1326.108,849.1" stroke="#505050" stroke-width="0.924"/>
        <path id="路径_72" data-name="路径 72" d="M1088.6,479.642l237.512,422.243" stroke="#505050" stroke-width="0.924"/>
        <path id="路径_73" data-name="路径 73" d="M1088.6,479.642l237.512,475.024" stroke="#505050" stroke-width="0.924"/>
        <path id="路径_74" data-name="路径 74" d="M1088.6,479.642l237.512,527.8" stroke="#505050" stroke-width="0.924"/>
        <path id="路径_75" data-name="路径 75" d="M1088.6,532.422l237.512-158.341" stroke="#505050" stroke-width="0.924"/>
        <path id="路径_76" data-name="路径 76" d="M1088.6,532.422l237.512-105.561" stroke="#505050" stroke-width="0.924"/>
        <path id="路径_77" data-name="路径 77" d="M1088.6,532.422l237.512-52.78" stroke="#505050" stroke-width="0.924"/>
        <path id="路径_78" data-name="路径 78" d="M1088.6,532.422h237.512" stroke="#505050" stroke-width="0.924"/>
        <path id="路径_79" data-name="路径 79" d="M1088.6,532.422l237.512,52.78" stroke="#505050" stroke-width="0.924"/>
        <path id="路径_80" data-name="路径 80" d="M1088.6,532.422l237.512,105.561" stroke="#505050" stroke-width="0.924"/>
        <path id="路径_81" data-name="路径 81" d="M1088.6,532.422l237.512,158.341" stroke="#505050" stroke-width="0.924"/>
        <path id="路径_82" data-name="路径 82" d="M1088.6,532.422l237.512,211.122" stroke="#505050" stroke-width="0.924"/>
        <path id="路径_83" data-name="路径 83" d="M1088.6,532.422l237.512,263.9" stroke="#505050" stroke-width="0.924"/>
        <path id="路径_84" data-name="路径 84" d="M1088.6,532.422,1326.108,849.1" stroke="#505050" stroke-width="0.924"/>
        <path id="路径_85" data-name="路径 85" d="M1088.6,532.422l237.512,369.463" stroke="#505050" stroke-width="0.924"/>
        <path id="路径_86" data-name="路径 86" d="M1088.6,532.422l237.512,422.243" stroke="#505050" stroke-width="0.924"/>
        <path id="路径_87" data-name="路径 87" d="M1088.6,532.422l237.512,475.024" stroke="#505050" stroke-width="0.924"/>
        <path id="路径_88" data-name="路径 88" d="M1088.6,585.2l237.512-211.122" stroke="#505050" stroke-width="0.924"/>
        <path id="路径_89" data-name="路径 89" d="M1088.6,585.2l237.512-158.341" stroke="#505050" stroke-width="0.924"/>
        <path id="路径_90" data-name="路径 90" d="M1088.6,585.2l237.512-105.561" stroke="#505050" stroke-width="0.924"/>
        <path id="路径_91" data-name="路径 91" d="M1088.6,585.2l237.512-52.78" stroke="#505050" stroke-width="0.924"/>
        <path id="路径_92" data-name="路径 92" d="M1088.6,585.2h237.512" stroke="#505050" stroke-width="0.924"/>
        <path id="路径_93" data-name="路径 93" d="M1088.6,585.2l237.512,52.78" stroke="#505050" stroke-width="0.924"/>
        <path id="路径_94" data-name="路径 94" d="M1088.6,585.2l237.512,105.561" stroke="#505050" stroke-width="0.924"/>
        <path id="路径_95" data-name="路径 95" d="M1088.6,585.2l237.512,158.341" stroke="#505050" stroke-width="0.924"/>
        <path id="路径_96" data-name="路径 96" d="M1088.6,585.2l237.512,211.122" stroke="#505050" stroke-width="0.924"/>
        <path id="路径_97" data-name="路径 97" d="M1088.6,585.2l237.512,263.9" stroke="#505050" stroke-width="0.924"/>
        <path id="路径_98" data-name="路径 98" d="M1088.6,585.2l237.512,316.682" stroke="#505050" stroke-width="0.924"/>
        <path id="路径_99" data-name="路径 99" d="M1088.6,585.2l237.512,369.463" stroke="#505050" stroke-width="0.924"/>
        <path id="路径_100" data-name="路径 100" d="M1088.6,585.2l237.512,422.243" stroke="#505050" stroke-width="0.924"/>
        <path id="路径_101" data-name="路径 101" d="M1088.6,637.983l237.512-263.9" stroke="#505050" stroke-width="0.924"/>
        <path id="路径_102" data-name="路径 102" d="M1088.6,637.983l237.512-211.122" stroke="#505050" stroke-width="0.924"/>
        <path id="路径_103" data-name="路径 103" d="M1088.6,637.983l237.512-158.341" stroke="#505050" stroke-width="0.924"/>
        <path id="路径_104" data-name="路径 104" d="M1088.6,637.983l237.512-105.561" stroke="#505050" stroke-width="0.924"/>
        <path id="路径_105" data-name="路径 105" d="M1088.6,637.983l237.512-52.78" stroke="#505050" stroke-width="0.924"/>
        <path id="路径_106" data-name="路径 106" d="M1088.6,637.983h237.512" stroke="#505050" stroke-width="0.924"/>
        <path id="路径_107" data-name="路径 107" d="M1088.6,637.983l237.512,52.78" stroke="#505050" stroke-width="0.924"/>
        <path id="路径_108" data-name="路径 108" d="M1088.6,637.983l237.512,105.561" stroke="#505050" stroke-width="0.924"/>
        <path id="路径_109" data-name="路径 109" d="M1088.6,637.983l237.512,158.341" stroke="#505050" stroke-width="0.924"/>
        <path id="路径_110" data-name="路径 110" d="M1088.6,637.983,1326.108,849.1" stroke="#505050" stroke-width="0.924"/>
        <path id="路径_111" data-name="路径 111" d="M1088.6,637.983l237.512,263.9" stroke="#505050" stroke-width="0.924"/>
        <path id="路径_112" data-name="路径 112" d="M1088.6,637.983l237.512,316.682" stroke="#505050" stroke-width="0.924"/>
        <path id="路径_113" data-name="路径 113" d="M1088.6,637.983l237.512,369.463" stroke="#505050" stroke-width="0.924"/>
        <path id="路径_114" data-name="路径 114" d="M1088.6,690.763l237.512-316.682" stroke="#505050" stroke-width="0.924"/>
        <path id="路径_115" data-name="路径 115" d="M1088.6,690.763l237.512-263.9" stroke="#505050" stroke-width="0.924"/>
        <path id="路径_116" data-name="路径 116" d="M1088.6,690.763l237.512-211.122" stroke="#505050" stroke-width="0.924"/>
        <path id="路径_117" data-name="路径 117" d="M1088.6,690.763l237.512-158.341" stroke="#505050" stroke-width="0.924"/>
        <path id="路径_118" data-name="路径 118" d="M1088.6,690.763,1326.108,585.2" stroke="#505050" stroke-width="0.924"/>
        <path id="路径_119" data-name="路径 119" d="M1088.6,690.763l237.512-52.78" stroke="#505050" stroke-width="0.924"/>
        <path id="路径_120" data-name="路径 120" d="M1088.6,690.763h237.512" stroke="#505050" stroke-width="0.924"/>
        <path id="路径_121" data-name="路径 121" d="M1088.6,690.763l237.512,52.78" stroke="#505050" stroke-width="0.924"/>
        <path id="路径_122" data-name="路径 122" d="M1088.6,690.763l237.512,105.561" stroke="#505050" stroke-width="0.924"/>
        <path id="路径_123" data-name="路径 123" d="M1088.6,690.763,1326.108,849.1" stroke="#505050" stroke-width="0.924"/>
        <path id="路径_124" data-name="路径 124" d="M1088.6,690.763l237.512,211.122" stroke="#505050" stroke-width="0.924"/>
        <path id="路径_125" data-name="路径 125" d="M1088.6,690.763l237.512,263.9" stroke="#505050" stroke-width="0.924"/>
        <path id="路径_126" data-name="路径 126" d="M1088.6,690.763l237.512,316.682" stroke="#505050" stroke-width="0.924"/>
        <path id="路径_127" data-name="路径 127" d="M1088.6,743.544l237.512-369.463" stroke="#505050" stroke-width="0.924"/>
        <path id="路径_128" data-name="路径 128" d="M1088.6,743.544l237.512-316.682" stroke="#505050" stroke-width="0.924"/>
        <path id="路径_129" data-name="路径 129" d="M1088.6,743.544l237.512-263.9" stroke="#505050" stroke-width="0.924"/>
        <path id="路径_130" data-name="路径 130" d="M1088.6,743.544l237.512-211.122" stroke="#505050" stroke-width="0.924"/>
        <path id="路径_131" data-name="路径 131" d="M1088.6,743.544,1326.108,585.2" stroke="#505050" stroke-width="0.924"/>
        <path id="路径_132" data-name="路径 132" d="M1088.6,743.544l237.512-105.561" stroke="#505050" stroke-width="0.924"/>
        <path id="路径_133" data-name="路径 133" d="M1088.6,743.544l237.512-52.78" stroke="#505050" stroke-width="0.924"/>
        <path id="路径_134" data-name="路径 134" d="M1088.6,743.544h237.512" stroke="#505050" stroke-width="0.924"/>
        <path id="路径_135" data-name="路径 135" d="M1088.6,743.544l237.512,52.78" stroke="#505050" stroke-width="0.924"/>
        <path id="路径_136" data-name="路径 136" d="M1088.6,743.544,1326.108,849.1" stroke="#505050" stroke-width="0.924"/>
        <path id="路径_137" data-name="路径 137" d="M1088.6,743.544l237.512,158.341" stroke="#505050" stroke-width="0.924"/>
        <path id="路径_138" data-name="路径 138" d="M1088.6,743.544l237.512,211.122" stroke="#505050" stroke-width="0.924"/>
        <path id="路径_139" data-name="路径 139" d="M1088.6,743.544l237.512,263.9" stroke="#505050" stroke-width="0.924"/>
        <path id="路径_140" data-name="路径 140" d="M1088.6,796.324l237.512-422.243" stroke="#505050" stroke-width="0.924"/>
        <path id="路径_141" data-name="路径 141" d="M1088.6,796.324l237.512-369.463" stroke="#505050" stroke-width="0.924"/>
        <path id="路径_142" data-name="路径 142" d="M1088.6,796.324l237.512-316.682" stroke="#505050" stroke-width="0.924"/>
        <path id="路径_143" data-name="路径 143" d="M1088.6,796.324l237.512-263.9" stroke="#505050" stroke-width="0.924"/>
        <path id="路径_144" data-name="路径 144" d="M1088.6,796.324,1326.108,585.2" stroke="#505050" stroke-width="0.924"/>
        <path id="路径_145" data-name="路径 145" d="M1088.6,796.324l237.512-158.341" stroke="#505050" stroke-width="0.924"/>
        <path id="路径_146" data-name="路径 146" d="M1088.6,796.324l237.512-105.561" stroke="#505050" stroke-width="0.924"/>
        <path id="路径_147" data-name="路径 147" d="M1088.6,796.324l237.512-52.78" stroke="#505050" stroke-width="0.924"/>
        <path id="路径_148" data-name="路径 148" d="M1088.6,796.324h237.512" stroke="#505050" stroke-width="0.924"/>
        <path id="路径_149" data-name="路径 149" d="M1088.6,796.324l237.512,52.78" stroke="#505050" stroke-width="0.924"/>
        <path id="路径_150" data-name="路径 150" d="M1088.6,796.324l237.512,105.561" stroke="#505050" stroke-width="0.924"/>
        <path id="路径_151" data-name="路径 151" d="M1088.6,796.324l237.512,158.341" stroke="#505050" stroke-width="0.924"/>
        <path id="路径_152" data-name="路径 152" d="M1088.6,796.324l237.512,211.122" stroke="#505050" stroke-width="0.924"/>
        <circle id="_0_0" data-name="0_0" cx="13.195" cy="13.195" r="13.195" transform="translate(837.889 545.617)" fill="#fff" stroke="#333" stroke-width="1.32"/>
        <circle id="_0_1" data-name="0_1" cx="13.195" cy="13.195" r="13.195" transform="translate(837.889 598.398)" fill="#fff" stroke="#333" stroke-width="1.32"/>
        <circle id="_0_2" data-name="0_2" cx="13.195" cy="13.195" r="13.195" transform="translate(837.889 651.178)" fill="#fff" stroke="#333" stroke-width="1.32"/>
        <circle id="_1_0" data-name="1_0" cx="13.195" cy="13.195" r="13.195" transform="translate(1075.401 413.666)" fill="#fff" stroke="#333" stroke-width="1.32"/>
        <text id="Input_Layer_" data-name="Input Layer ∈ ℝ³" transform="translate(804.901 1060.226)" font-size="16" font-family="HelveticaNeue, Helvetica Neue"><tspan x="0" y="0">Input Layer </tspan><tspan y="0" font-family="AppleSymbols, Apple Symbols">∈</tspan><tspan y="0"> </tspan><tspan y="0" font-family="Menlo-Regular, Menlo">ℝ</tspan><tspan y="0">³</tspan></text>
        <text id="Hidden_Layer_" data-name="Hidden Layer ∈ ℝ⁸" transform="translate(1042.413 1060.226)" font-size="16" font-family="HelveticaNeue, Helvetica Neue"><tspan x="0" y="0">Hidden Layer </tspan><tspan y="0" font-family="AppleSymbols, Apple Symbols">∈</tspan><tspan y="0"> </tspan><tspan y="0" font-family="Menlo-Regular, Menlo">ℝ</tspan><tspan y="0">⁸</tspan></text>
        <circle id="_1_1" data-name="1_1" cx="13.195" cy="13.195" r="13.195" transform="translate(1075.401 466.447)" fill="#fff" stroke="#333" stroke-width="1.32"/>
        <circle id="_1_2" data-name="1_2" cx="13.195" cy="13.195" r="13.195" transform="translate(1075.401 519.227)" fill="#fff" stroke="#333" stroke-width="1.32"/>
        <circle id="_1_3" data-name="1_3" cx="13.195" cy="13.195" r="13.195" transform="translate(1075.401 572.008)" fill="#fff" stroke="#333" stroke-width="1.32"/>
        <circle id="_1_4" data-name="1_4" cx="13.195" cy="13.195" r="13.195" transform="translate(1075.401 624.788)" fill="#fff" stroke="#333" stroke-width="1.32"/>
        <circle id="_1_5" data-name="1_5" cx="13.195" cy="13.195" r="13.195" transform="translate(1075.401 677.568)" fill="#fff" stroke="#333" stroke-width="1.32"/>
        <circle id="_1_6" data-name="1_6" cx="13.195" cy="13.195" r="13.195" transform="translate(1075.401 730.349)" fill="#fff" stroke="#333" stroke-width="1.32"/>
        <circle id="_1_7" data-name="1_7" cx="13.195" cy="13.195" r="13.195" transform="translate(1075.401 783.129)" fill="#fff" stroke="#333" stroke-width="1.32"/>
        <circle id="_2_0" data-name="2_0" cx="13.195" cy="13.195" r="13.195" transform="translate(1312.912 202.545)" fill="#fff" stroke="#333" stroke-width="1.32"/>
        <circle id="_2_1" data-name="2_1" cx="13.195" cy="13.195" r="13.195" transform="translate(1312.912 255.325)" fill="#fff" stroke="#333" stroke-width="1.32"/>
        <circle id="_2_2" data-name="2_2" cx="13.195" cy="13.195" r="13.195" transform="translate(1312.912 308.106)" fill="#fff" stroke="#333" stroke-width="1.32"/>
        <text id="Output_Layer_" data-name="Output Layer ∈ ℝ¹⁶" transform="translate(1279.925 1060.226)" font-size="16" font-family="HelveticaNeue, Helvetica Neue"><tspan x="0" y="0">Output Layer </tspan><tspan y="0" font-family="AppleSymbols, Apple Symbols">∈</tspan><tspan y="0"> </tspan><tspan y="0" font-family="Menlo-Regular, Menlo">ℝ</tspan><tspan y="0">¹⁶</tspan></text>
        <circle id="_2_3" data-name="2_3" cx="13.195" cy="13.195" r="13.195" transform="translate(1312.912 360.886)" fill="#fff" stroke="#333" stroke-width="1.32"/>
        <circle id="_2_4" data-name="2_4" cx="13.195" cy="13.195" r="13.195" transform="translate(1312.912 413.666)" fill="#fff" stroke="#333" stroke-width="1.32"/>
        <circle id="_2_5" data-name="2_5" cx="13.195" cy="13.195" r="13.195" transform="translate(1312.912 466.447)" fill="#fff" stroke="#333" stroke-width="1.32"/>
        <circle id="_2_6" data-name="2_6" cx="13.195" cy="13.195" r="13.195" transform="translate(1312.912 519.227)" fill="#fff" stroke="#333" stroke-width="1.32"/>
        <circle id="_2_7" data-name="2_7" cx="13.195" cy="13.195" r="13.195" transform="translate(1312.912 572.008)" fill="#fff" stroke="#333" stroke-width="1.32"/>
        <circle id="_2_8" data-name="2_8" cx="13.195" cy="13.195" r="13.195" transform="translate(1312.912 624.788)" fill="#fff" stroke="#333" stroke-width="1.32"/>
        <circle id="_2_9" data-name="2_9" cx="13.195" cy="13.195" r="13.195" transform="translate(1312.912 677.568)" fill="#fff" stroke="#333" stroke-width="1.32"/>
        <circle id="_2_10" data-name="2_10" cx="13.195" cy="13.195" r="13.195" transform="translate(1312.912 730.349)" fill="#fff" stroke="#333" stroke-width="1.32"/>
        <circle id="_2_11" data-name="2_11" cx="13.195" cy="13.195" r="13.195" transform="translate(1312.912 783.129)" fill="#fff" stroke="#333" stroke-width="1.32"/>
        <circle id="_2_12" data-name="2_12" cx="13.195" cy="13.195" r="13.195" transform="translate(1312.912 835.91)" fill="#fff" stroke="#333" stroke-width="1.32"/>
        <circle id="_2_13" data-name="2_13" cx="13.195" cy="13.195" r="13.195" transform="translate(1312.912 888.69)" fill="#fff" stroke="#333" stroke-width="1.32"/>
        <circle id="_2_14" data-name="2_14" cx="13.195" cy="13.195" r="13.195" transform="translate(1312.912 941.47)" fill="#fff" stroke="#333" stroke-width="1.32"/>
        <circle id="_2_15" data-name="2_15" cx="13.195" cy="13.195" r="13.195" transform="translate(1312.912 994.251)" fill="#fff" stroke="#333" stroke-width="1.32"/>
      </g>
      <g id="nn" transform="translate(-270.255 -81.375)">
        <path id="路径_153" data-name="路径 153" d="M851.084,215.74,1088.6,426.861" stroke="#505050" stroke-width="0.924"/>
        <path id="路径_154" data-name="路径 154" d="M851.084,268.52,1088.6,426.861" stroke="#505050" stroke-width="0.924"/>
        <path id="路径_155" data-name="路径 155" d="M851.084,321.3,1088.6,426.861" stroke="#505050" stroke-width="0.924"/>
        <path id="路径_156" data-name="路径 156" d="M851.084,374.081l237.512,52.78" stroke="#505050" stroke-width="0.924"/>
        <path id="路径_157" data-name="路径 157" d="M851.084,426.861H1088.6" stroke="#505050" stroke-width="0.924"/>
        <path id="路径_158" data-name="路径 158" d="M851.084,479.642l237.512-52.78" stroke="#505050" stroke-width="0.924"/>
        <path id="路径_159" data-name="路径 159" d="M851.084,532.422,1088.6,426.861" stroke="#505050" stroke-width="0.924"/>
        <path id="路径_160" data-name="路径 160" d="M851.084,585.2,1088.6,426.861" stroke="#505050" stroke-width="0.924"/>
        <path id="路径_161" data-name="路径 161" d="M851.084,215.74l237.512,263.9" stroke="#505050" stroke-width="0.924"/>
        <path id="路径_162" data-name="路径 162" d="M851.084,215.74,1088.6,532.422" stroke="#505050" stroke-width="0.924"/>
        <path id="路径_163" data-name="路径 163" d="M851.084,215.74,1088.6,585.2" stroke="#505050" stroke-width="0.924"/>
        <path id="路径_164" data-name="路径 164" d="M851.084,268.52,1088.6,479.642" stroke="#505050" stroke-width="0.924"/>
        <path id="路径_165" data-name="路径 165" d="M851.084,268.52l237.512,263.9" stroke="#505050" stroke-width="0.924"/>
        <path id="路径_166" data-name="路径 166" d="M851.084,268.52,1088.6,585.2" stroke="#505050" stroke-width="0.924"/>
        <path id="路径_167" data-name="路径 167" d="M851.084,321.3,1088.6,479.642" stroke="#505050" stroke-width="0.924"/>
        <path id="路径_168" data-name="路径 168" d="M851.084,321.3,1088.6,532.422" stroke="#505050" stroke-width="0.924"/>
        <path id="路径_169" data-name="路径 169" d="M851.084,321.3,1088.6,585.2" stroke="#505050" stroke-width="0.924"/>
        <path id="路径_170" data-name="路径 170" d="M851.084,374.081,1088.6,479.642" stroke="#505050" stroke-width="0.924"/>
        <path id="路径_171" data-name="路径 171" d="M851.084,374.081,1088.6,532.422" stroke="#505050" stroke-width="0.924"/>
        <path id="路径_172" data-name="路径 172" d="M851.084,374.081,1088.6,585.2" stroke="#505050" stroke-width="0.924"/>
        <path id="路径_173" data-name="路径 173" d="M851.084,426.861l237.512,52.78" stroke="#505050" stroke-width="0.924"/>
        <path id="路径_174" data-name="路径 174" d="M851.084,426.861,1088.6,532.422" stroke="#505050" stroke-width="0.924"/>
        <path id="路径_175" data-name="路径 175" d="M851.084,426.861,1088.6,585.2" stroke="#505050" stroke-width="0.924"/>
        <path id="路径_176" data-name="路径 176" d="M851.084,479.642H1088.6" stroke="#505050" stroke-width="0.924"/>
        <path id="路径_177" data-name="路径 177" d="M851.084,479.642l237.512,52.78" stroke="#505050" stroke-width="0.924"/>
        <path id="路径_178" data-name="路径 178" d="M851.084,479.642,1088.6,585.2" stroke="#505050" stroke-width="0.924"/>
        <path id="路径_179" data-name="路径 179" d="M851.084,532.422l237.512-52.78" stroke="#505050" stroke-width="0.924"/>
        <path id="路径_180" data-name="路径 180" d="M851.084,532.422H1088.6" stroke="#505050" stroke-width="0.924"/>
        <path id="路径_181" data-name="路径 181" d="M851.084,532.422,1088.6,585.2" stroke="#505050" stroke-width="0.924"/>
        <path id="路径_182" data-name="路径 182" d="M851.084,585.2,1088.6,479.642" stroke="#505050" stroke-width="0.924"/>
        <path id="路径_183" data-name="路径 183" d="M851.084,585.2l237.512-52.78" stroke="#505050" stroke-width="0.924"/>
        <path id="路径_184" data-name="路径 184" d="M851.084,585.2H1088.6" stroke="#505050" stroke-width="0.924"/>
        <path id="路径_185" data-name="路径 185" d="M1088.6,426.861l237.512,131.951" stroke="#505050" stroke-width="0.924"/>
        <path id="路径_186" data-name="路径 186" d="M1088.6,426.861l237.512,184.731" stroke="#505050" stroke-width="0.924"/>
        <path id="路径_187" data-name="路径 187" d="M1088.6,426.861l237.512,237.512" stroke="#505050" stroke-width="0.924"/>
        <path id="路径_188" data-name="路径 188" d="M1088.6,479.642l237.512,79.171" stroke="#505050" stroke-width="0.924"/>
        <path id="路径_189" data-name="路径 189" d="M1088.6,479.642l237.512,131.951" stroke="#505050" stroke-width="0.924"/>
        <path id="路径_190" data-name="路径 190" d="M1088.6,479.642l237.512,184.731" stroke="#505050" stroke-width="0.924"/>
        <path id="路径_191" data-name="路径 191" d="M1088.6,532.422l237.512,26.39" stroke="#505050" stroke-width="0.924"/>
        <path id="路径_192" data-name="路径 192" d="M1088.6,532.422l237.512,79.171" stroke="#505050" stroke-width="0.924"/>
        <path id="路径_193" data-name="路径 193" d="M1088.6,532.422l237.512,131.951" stroke="#505050" stroke-width="0.924"/>
        <path id="路径_194" data-name="路径 194" d="M1088.6,585.2l237.512-26.39" stroke="#505050" stroke-width="0.924"/>
        <path id="路径_195" data-name="路径 195" d="M1088.6,585.2l237.512,26.39" stroke="#505050" stroke-width="0.924"/>
        <path id="路径_196" data-name="路径 196" d="M1088.6,585.2l237.512,79.171" stroke="#505050" stroke-width="0.924"/>
        <path id="路径_197" data-name="路径 197" d="M851.084,637.983,1088.6,426.861" stroke="#505050" stroke-width="0.924"/>
        <path id="路径_198" data-name="路径 198" d="M851.084,637.983,1088.6,479.642" stroke="#505050" stroke-width="0.924"/>
        <path id="路径_199" data-name="路径 199" d="M851.084,637.983,1088.6,532.422" stroke="#505050" stroke-width="0.924"/>
        <path id="路径_200" data-name="路径 200" d="M851.084,637.983,1088.6,585.2" stroke="#505050" stroke-width="0.924"/>
        <path id="路径_201" data-name="路径 201" d="M851.084,690.763l237.512-263.9" stroke="#505050" stroke-width="0.924"/>
        <path id="路径_202" data-name="路径 202" d="M851.084,690.763,1088.6,479.642" stroke="#505050" stroke-width="0.924"/>
        <path id="路径_203" data-name="路径 203" d="M851.084,690.763,1088.6,532.422" stroke="#505050" stroke-width="0.924"/>
        <path id="路径_204" data-name="路径 204" d="M851.084,690.763,1088.6,585.2" stroke="#505050" stroke-width="0.924"/>
        <path id="路径_205" data-name="路径 205" d="M851.084,743.544,1088.6,426.861" stroke="#505050" stroke-width="0.924"/>
        <path id="路径_206" data-name="路径 206" d="M851.084,743.544l237.512-263.9" stroke="#505050" stroke-width="0.924"/>
        <path id="路径_207" data-name="路径 207" d="M851.084,743.544,1088.6,532.422" stroke="#505050" stroke-width="0.924"/>
        <path id="路径_208" data-name="路径 208" d="M851.084,743.544,1088.6,585.2" stroke="#505050" stroke-width="0.924"/>
        <path id="路径_209" data-name="路径 209" d="M851.084,796.324,1088.6,426.861" stroke="#505050" stroke-width="0.924"/>
        <path id="路径_210" data-name="路径 210" d="M851.084,796.324,1088.6,479.642" stroke="#505050" stroke-width="0.924"/>
        <path id="路径_211" data-name="路径 211" d="M851.084,796.324l237.512-263.9" stroke="#505050" stroke-width="0.924"/>
        <path id="路径_212" data-name="路径 212" d="M851.084,796.324,1088.6,585.2" stroke="#505050" stroke-width="0.924"/>
        <path id="路径_213" data-name="路径 213" d="M851.084,849.1,1088.6,426.861" stroke="#505050" stroke-width="0.924"/>
        <path id="路径_214" data-name="路径 214" d="M851.084,849.1,1088.6,479.642" stroke="#505050" stroke-width="0.924"/>
        <path id="路径_215" data-name="路径 215" d="M851.084,849.1,1088.6,532.422" stroke="#505050" stroke-width="0.924"/>
        <path id="路径_216" data-name="路径 216" d="M851.084,849.1,1088.6,585.2" stroke="#505050" stroke-width="0.924"/>
        <path id="路径_217" data-name="路径 217" d="M851.084,901.885,1088.6,426.861" stroke="#505050" stroke-width="0.924"/>
        <path id="路径_218" data-name="路径 218" d="M851.084,901.885,1088.6,479.642" stroke="#505050" stroke-width="0.924"/>
        <path id="路径_219" data-name="路径 219" d="M851.084,901.885,1088.6,532.422" stroke="#505050" stroke-width="0.924"/>
        <path id="路径_220" data-name="路径 220" d="M851.084,901.885,1088.6,585.2" stroke="#505050" stroke-width="0.924"/>
        <path id="路径_221" data-name="路径 221" d="M851.084,954.665l237.512-527.8" stroke="#505050" stroke-width="0.924"/>
        <path id="路径_222" data-name="路径 222" d="M851.084,954.665,1088.6,479.642" stroke="#505050" stroke-width="0.924"/>
        <path id="路径_223" data-name="路径 223" d="M851.084,954.665,1088.6,532.422" stroke="#505050" stroke-width="0.924"/>
        <path id="路径_224" data-name="路径 224" d="M851.084,954.665,1088.6,585.2" stroke="#505050" stroke-width="0.924"/>
        <path id="路径_225" data-name="路径 225" d="M851.084,1007.446,1088.6,426.861" stroke="#505050" stroke-width="0.924"/>
        <path id="路径_226" data-name="路径 226" d="M851.084,1007.446l237.512-527.8" stroke="#505050" stroke-width="0.924"/>
        <path id="路径_227" data-name="路径 227" d="M851.084,1007.446,1088.6,532.422" stroke="#505050" stroke-width="0.924"/>
        <path id="路径_228" data-name="路径 228" d="M851.084,1007.446,1088.6,585.2" stroke="#505050" stroke-width="0.924"/>
        <path id="路径_229" data-name="路径 229" d="M851.084,215.74,1088.6,637.983" stroke="#505050" stroke-width="0.924"/>
        <path id="路径_230" data-name="路径 230" d="M851.084,215.74,1088.6,690.763" stroke="#505050" stroke-width="0.924"/>
        <path id="路径_231" data-name="路径 231" d="M851.084,215.74l237.512,527.8" stroke="#505050" stroke-width="0.924"/>
        <path id="路径_232" data-name="路径 232" d="M851.084,215.74,1088.6,796.324" stroke="#505050" stroke-width="0.924"/>
        <path id="路径_233" data-name="路径 233" d="M851.084,268.52,1088.6,637.983" stroke="#505050" stroke-width="0.924"/>
        <path id="路径_234" data-name="路径 234" d="M851.084,268.52,1088.6,690.763" stroke="#505050" stroke-width="0.924"/>
        <path id="路径_235" data-name="路径 235" d="M851.084,268.52,1088.6,743.544" stroke="#505050" stroke-width="0.924"/>
        <path id="路径_236" data-name="路径 236" d="M851.084,268.52l237.512,527.8" stroke="#505050" stroke-width="0.924"/>
        <path id="路径_237" data-name="路径 237" d="M851.084,321.3,1088.6,637.983" stroke="#505050" stroke-width="0.924"/>
        <path id="路径_238" data-name="路径 238" d="M851.084,321.3,1088.6,690.763" stroke="#505050" stroke-width="0.924"/>
        <path id="路径_239" data-name="路径 239" d="M851.084,321.3,1088.6,743.544" stroke="#505050" stroke-width="0.924"/>
        <path id="路径_240" data-name="路径 240" d="M851.084,321.3,1088.6,796.324" stroke="#505050" stroke-width="0.924"/>
        <path id="路径_241" data-name="路径 241" d="M851.084,374.081l237.512,263.9" stroke="#505050" stroke-width="0.924"/>
        <path id="路径_242" data-name="路径 242" d="M851.084,374.081,1088.6,690.763" stroke="#505050" stroke-width="0.924"/>
        <path id="路径_243" data-name="路径 243" d="M851.084,374.081,1088.6,743.544" stroke="#505050" stroke-width="0.924"/>
        <path id="路径_244" data-name="路径 244" d="M851.084,374.081,1088.6,796.324" stroke="#505050" stroke-width="0.924"/>
        <path id="路径_245" data-name="路径 245" d="M851.084,426.861,1088.6,637.983" stroke="#505050" stroke-width="0.924"/>
        <path id="路径_246" data-name="路径 246" d="M851.084,426.861l237.512,263.9" stroke="#505050" stroke-width="0.924"/>
        <path id="路径_247" data-name="路径 247" d="M851.084,426.861,1088.6,743.544" stroke="#505050" stroke-width="0.924"/>
        <path id="路径_248" data-name="路径 248" d="M851.084,426.861,1088.6,796.324" stroke="#505050" stroke-width="0.924"/>
        <path id="路径_249" data-name="路径 249" d="M851.084,479.642,1088.6,637.983" stroke="#505050" stroke-width="0.924"/>
        <path id="路径_250" data-name="路径 250" d="M851.084,479.642,1088.6,690.763" stroke="#505050" stroke-width="0.924"/>
        <path id="路径_251" data-name="路径 251" d="M851.084,479.642l237.512,263.9" stroke="#505050" stroke-width="0.924"/>
        <path id="路径_252" data-name="路径 252" d="M851.084,479.642,1088.6,796.324" stroke="#505050" stroke-width="0.924"/>
        <path id="路径_253" data-name="路径 253" d="M851.084,532.422,1088.6,637.983" stroke="#505050" stroke-width="0.924"/>
        <path id="路径_254" data-name="路径 254" d="M851.084,532.422,1088.6,690.763" stroke="#505050" stroke-width="0.924"/>
        <path id="路径_255" data-name="路径 255" d="M851.084,532.422,1088.6,743.544" stroke="#505050" stroke-width="0.924"/>
        <path id="路径_256" data-name="路径 256" d="M851.084,532.422l237.512,263.9" stroke="#505050" stroke-width="0.924"/>
        <path id="路径_257" data-name="路径 257" d="M851.084,585.2l237.512,52.78" stroke="#505050" stroke-width="0.924"/>
        <path id="路径_258" data-name="路径 258" d="M851.084,585.2,1088.6,690.763" stroke="#505050" stroke-width="0.924"/>
        <path id="路径_259" data-name="路径 259" d="M851.084,585.2,1088.6,743.544" stroke="#505050" stroke-width="0.924"/>
        <path id="路径_260" data-name="路径 260" d="M851.084,585.2,1088.6,796.324" stroke="#505050" stroke-width="0.924"/>
        <path id="路径_261" data-name="路径 261" d="M851.084,637.983H1088.6" stroke="#505050" stroke-width="0.924"/>
        <path id="路径_262" data-name="路径 262" d="M851.084,637.983l237.512,52.78" stroke="#505050" stroke-width="0.924"/>
        <path id="路径_263" data-name="路径 263" d="M851.084,637.983,1088.6,743.544" stroke="#505050" stroke-width="0.924"/>
        <path id="路径_264" data-name="路径 264" d="M851.084,637.983,1088.6,796.324" stroke="#505050" stroke-width="0.924"/>
        <path id="路径_265" data-name="路径 265" d="M851.084,690.763l237.512-52.78" stroke="#505050" stroke-width="0.924"/>
        <path id="路径_266" data-name="路径 266" d="M851.084,690.763H1088.6" stroke="#505050" stroke-width="0.924"/>
        <path id="路径_267" data-name="路径 267" d="M851.084,690.763l237.512,52.78" stroke="#505050" stroke-width="0.924"/>
        <path id="路径_268" data-name="路径 268" d="M851.084,690.763,1088.6,796.324" stroke="#505050" stroke-width="0.924"/>
        <path id="路径_269" data-name="路径 269" d="M851.084,743.544,1088.6,637.983" stroke="#505050" stroke-width="0.924"/>
        <path id="路径_270" data-name="路径 270" d="M851.084,743.544l237.512-52.78" stroke="#505050" stroke-width="0.924"/>
        <path id="路径_271" data-name="路径 271" d="M851.084,743.544H1088.6" stroke="#505050" stroke-width="0.924"/>
        <path id="路径_272" data-name="路径 272" d="M851.084,743.544l237.512,52.78" stroke="#505050" stroke-width="0.924"/>
        <path id="路径_273" data-name="路径 273" d="M851.084,796.324,1088.6,637.983" stroke="#505050" stroke-width="0.924"/>
        <path id="路径_274" data-name="路径 274" d="M851.084,796.324,1088.6,690.763" stroke="#505050" stroke-width="0.924"/>
        <path id="路径_275" data-name="路径 275" d="M851.084,796.324l237.512-52.78" stroke="#505050" stroke-width="0.924"/>
        <path id="路径_276" data-name="路径 276" d="M851.084,796.324H1088.6" stroke="#505050" stroke-width="0.924"/>
        <path id="路径_277" data-name="路径 277" d="M851.084,849.1,1088.6,637.983" stroke="#505050" stroke-width="0.924"/>
        <path id="路径_278" data-name="路径 278" d="M851.084,849.1,1088.6,690.763" stroke="#505050" stroke-width="0.924"/>
        <path id="路径_279" data-name="路径 279" d="M851.084,849.1,1088.6,743.544" stroke="#505050" stroke-width="0.924"/>
        <path id="路径_280" data-name="路径 280" d="M851.084,849.1l237.512-52.78" stroke="#505050" stroke-width="0.924"/>
        <path id="路径_281" data-name="路径 281" d="M851.084,901.885l237.512-263.9" stroke="#505050" stroke-width="0.924"/>
        <path id="路径_282" data-name="路径 282" d="M851.084,901.885,1088.6,690.763" stroke="#505050" stroke-width="0.924"/>
        <path id="路径_283" data-name="路径 283" d="M851.084,901.885,1088.6,743.544" stroke="#505050" stroke-width="0.924"/>
        <path id="路径_284" data-name="路径 284" d="M851.084,901.885,1088.6,796.324" stroke="#505050" stroke-width="0.924"/>
        <path id="路径_285" data-name="路径 285" d="M851.084,954.665,1088.6,637.983" stroke="#505050" stroke-width="0.924"/>
        <path id="路径_286" data-name="路径 286" d="M851.084,954.665l237.512-263.9" stroke="#505050" stroke-width="0.924"/>
        <path id="路径_287" data-name="路径 287" d="M851.084,954.665,1088.6,743.544" stroke="#505050" stroke-width="0.924"/>
        <path id="路径_288" data-name="路径 288" d="M851.084,954.665,1088.6,796.324" stroke="#505050" stroke-width="0.924"/>
        <path id="路径_289" data-name="路径 289" d="M851.084,1007.446,1088.6,637.983" stroke="#505050" stroke-width="0.924"/>
        <path id="路径_290" data-name="路径 290" d="M851.084,1007.446,1088.6,690.763" stroke="#505050" stroke-width="0.924"/>
        <path id="路径_291" data-name="路径 291" d="M851.084,1007.446l237.512-263.9" stroke="#505050" stroke-width="0.924"/>
        <path id="路径_292" data-name="路径 292" d="M851.084,1007.446,1088.6,796.324" stroke="#505050" stroke-width="0.924"/>
        <path id="路径_293" data-name="路径 293" d="M1088.6,637.983l237.512-79.171" stroke="#505050" stroke-width="0.924"/>
        <path id="路径_294" data-name="路径 294" d="M1088.6,637.983l237.512-26.39" stroke="#505050" stroke-width="0.924"/>
        <path id="路径_295" data-name="路径 295" d="M1088.6,637.983l237.512,26.39" stroke="#505050" stroke-width="0.924"/>
        <path id="路径_296" data-name="路径 296" d="M1088.6,690.763l237.512-131.951" stroke="#505050" stroke-width="0.924"/>
        <path id="路径_297" data-name="路径 297" d="M1088.6,690.763l237.512-79.171" stroke="#505050" stroke-width="0.924"/>
        <path id="路径_298" data-name="路径 298" d="M1088.6,690.763l237.512-26.39" stroke="#505050" stroke-width="0.924"/>
        <path id="路径_299" data-name="路径 299" d="M1088.6,743.544l237.512-184.731" stroke="#505050" stroke-width="0.924"/>
        <path id="路径_300" data-name="路径 300" d="M1088.6,743.544l237.512-131.951" stroke="#505050" stroke-width="0.924"/>
        <path id="路径_301" data-name="路径 301" d="M1088.6,743.544l237.512-79.171" stroke="#505050" stroke-width="0.924"/>
        <path id="路径_302" data-name="路径 302" d="M1088.6,796.324l237.512-237.512" stroke="#505050" stroke-width="0.924"/>
        <path id="路径_303" data-name="路径 303" d="M1088.6,796.324l237.512-184.731" stroke="#505050" stroke-width="0.924"/>
        <path id="路径_304" data-name="路径 304" d="M1088.6,796.324l237.512-131.951" stroke="#505050" stroke-width="0.924"/>
        <circle id="_0_0-2" data-name="0_0" cx="13.195" cy="13.195" r="13.195" transform="translate(837.889 202.545)" fill="#fff" stroke="#333" stroke-width="1.32"/>
        <circle id="_0_1-2" data-name="0_1" cx="13.195" cy="13.195" r="13.195" transform="translate(837.889 255.325)" fill="#fff" stroke="#333" stroke-width="1.32"/>
        <circle id="_0_2-2" data-name="0_2" cx="13.195" cy="13.195" r="13.195" transform="translate(837.889 308.106)" fill="#fff" stroke="#333" stroke-width="1.32"/>
        <circle id="_0_3" data-name="0_3" cx="13.195" cy="13.195" r="13.195" transform="translate(837.889 360.886)" fill="#fff" stroke="#333" stroke-width="1.32"/>
        <circle id="_0_4" data-name="0_4" cx="13.195" cy="13.195" r="13.195" transform="translate(837.889 413.666)" fill="#fff" stroke="#333" stroke-width="1.32"/>
        <circle id="_0_5" data-name="0_5" cx="13.195" cy="13.195" r="13.195" transform="translate(837.889 466.447)" fill="#fff" stroke="#333" stroke-width="1.32"/>
        <circle id="_0_6" data-name="0_6" cx="13.195" cy="13.195" r="13.195" transform="translate(837.889 519.227)" fill="#fff" stroke="#333" stroke-width="1.32"/>
        <circle id="_0_7" data-name="0_7" cx="13.195" cy="13.195" r="13.195" transform="translate(837.889 572.008)" fill="#fff" stroke="#333" stroke-width="1.32"/>
        <circle id="_0_8" data-name="0_8" cx="13.195" cy="13.195" r="13.195" transform="translate(837.889 624.788)" fill="#fff" stroke="#333" stroke-width="1.32"/>
        <circle id="_0_9" data-name="0_9" cx="13.195" cy="13.195" r="13.195" transform="translate(837.889 677.568)" fill="#fff" stroke="#333" stroke-width="1.32"/>
        <circle id="_0_10" data-name="0_10" cx="13.195" cy="13.195" r="13.195" transform="translate(837.889 730.349)" fill="#fff" stroke="#333" stroke-width="1.32"/>
        <circle id="_0_11" data-name="0_11" cx="13.195" cy="13.195" r="13.195" transform="translate(837.889 783.129)" fill="#fff" stroke="#333" stroke-width="1.32"/>
        <circle id="_0_12" data-name="0_12" cx="13.195" cy="13.195" r="13.195" transform="translate(837.889 835.91)" fill="#fff" stroke="#333" stroke-width="1.32"/>
        <circle id="_0_13" data-name="0_13" cx="13.195" cy="13.195" r="13.195" transform="translate(837.889 888.69)" fill="#fff" stroke="#333" stroke-width="1.32"/>
        <circle id="_0_14" data-name="0_14" cx="13.195" cy="13.195" r="13.195" transform="translate(837.889 941.47)" fill="#fff" stroke="#333" stroke-width="1.32"/>
        <circle id="_0_15" data-name="0_15" cx="13.195" cy="13.195" r="13.195" transform="translate(837.889 994.251)" fill="#fff" stroke="#333" stroke-width="1.32"/>
        <circle id="_1_0-2" data-name="1_0" cx="13.195" cy="13.195" r="13.195" transform="translate(1075.401 413.666)" fill="#fff" stroke="#333" stroke-width="1.32"/>
        <text id="Input_Layer_2" data-name="Input Layer ∈ ℝ¹⁶" transform="translate(804.901 1060.226)" font-size="16" font-family="HelveticaNeue, Helvetica Neue"><tspan x="0" y="0">Input Layer </tspan><tspan y="0" font-family="AppleSymbols, Apple Symbols">∈</tspan><tspan y="0"> </tspan><tspan y="0" font-family="Menlo-Regular, Menlo">ℝ</tspan><tspan y="0">¹⁶</tspan></text>
        <text id="Hidden_Layer_2" data-name="Hidden Layer ∈ ℝ⁸" transform="translate(1042.413 1060.226)" font-size="16" font-family="HelveticaNeue, Helvetica Neue"><tspan x="0" y="0">Hidden Layer </tspan><tspan y="0" font-family="AppleSymbols, Apple Symbols">∈</tspan><tspan y="0"> </tspan><tspan y="0" font-family="Menlo-Regular, Menlo">ℝ</tspan><tspan y="0">⁸</tspan></text>
        <circle id="_1_1-2" data-name="1_1" cx="13.195" cy="13.195" r="13.195" transform="translate(1075.401 466.447)" fill="#fff" stroke="#333" stroke-width="1.32"/>
        <circle id="_1_2-2" data-name="1_2" cx="13.195" cy="13.195" r="13.195" transform="translate(1075.401 519.227)" fill="#fff" stroke="#333" stroke-width="1.32"/>
        <circle id="_1_3-2" data-name="1_3" cx="13.195" cy="13.195" r="13.195" transform="translate(1075.401 572.008)" fill="#fff" stroke="#333" stroke-width="1.32"/>
        <circle id="_1_4-2" data-name="1_4" cx="13.195" cy="13.195" r="13.195" transform="translate(1075.401 624.788)" fill="#fff" stroke="#333" stroke-width="1.32"/>
        <circle id="_1_5-2" data-name="1_5" cx="13.195" cy="13.195" r="13.195" transform="translate(1075.401 677.568)" fill="#fff" stroke="#333" stroke-width="1.32"/>
        <circle id="_1_6-2" data-name="1_6" cx="13.195" cy="13.195" r="13.195" transform="translate(1075.401 730.349)" fill="#fff" stroke="#333" stroke-width="1.32"/>
        <circle id="_1_7-2" data-name="1_7" cx="13.195" cy="13.195" r="13.195" transform="translate(1075.401 783.129)" fill="#fff" stroke="#333" stroke-width="1.32"/>
        <circle id="_2_0-2" data-name="2_0" cx="13.195" cy="13.195" r="13.195" transform="translate(1312.912 545.617)" fill="#fff" stroke="#333" stroke-width="1.32"/>
        <circle id="_2_1-2" data-name="2_1" cx="13.195" cy="13.195" r="13.195" transform="translate(1312.912 598.398)" fill="#fff" stroke="#333" stroke-width="1.32"/>
        <circle id="_2_2-2" data-name="2_2" cx="13.195" cy="13.195" r="13.195" transform="translate(1312.912 651.178)" fill="#fff" stroke="#333" stroke-width="1.32"/>
        <text id="Output_Layer_2" data-name="Output Layer ∈ ℝ³" transform="translate(1279.925 1060.226)" font-size="16" font-family="HelveticaNeue, Helvetica Neue"><tspan x="0" y="0">Output Layer </tspan><tspan y="0" font-family="AppleSymbols, Apple Symbols">∈</tspan><tspan y="0"> </tspan><tspan y="0" font-family="Menlo-Regular, Menlo">ℝ</tspan><tspan y="0">³</tspan></text>
      </g>
      <rect id="矩形_1" data-name="矩形 1" width="198" height="69" transform="translate(974 942)" fill="#fff"/>
    </g>
    <line id="直线_1" data-name="直线 1" x2="180" y2="50" transform="translate(615.5 121.5)" fill="none" stroke="#707070" stroke-width="1"/>
    <line id="直线_2" data-name="直线 2" x1="198" y2="50" transform="translate(1301.5 121.5)" fill="none" stroke="#707070" stroke-width="1"/>
    <line id="直线_3" data-name="直线 3" y2="122" transform="translate(1056.5 619.5)" fill="none" stroke="#707070" stroke-width="1"/>
    <text id="原始数据" transform="translate(801 181)" fill="#707070" font-size="28" font-family="Georgia"><tspan x="0" y="0">原始数据</tspan></text>
    <text id="目标数据" transform="translate(1185 181)" fill="#707070" font-size="28" font-family="Georgia"><tspan x="0" y="0">目标数据</tspan></text>
    <text id="隐变量" transform="translate(1015 781)" fill="#707070" font-size="28" font-family="Georgia"><tspan x="0" y="0">隐变量</tspan></text>
  </g>
</svg>
